<?xml version="1.0" encoding="UTF-8" standalone="no"?>
<!-- Created with Inkscape (http://www.inkscape.org/) -->

<svg
   xmlns:dc="http://purl.org/dc/elements/1.1/"
   xmlns:cc="http://creativecommons.org/ns#"
   xmlns:rdf="http://www.w3.org/1999/02/22-rdf-syntax-ns#"
   xmlns:svg="http://www.w3.org/2000/svg"
   xmlns="http://www.w3.org/2000/svg"
   version="1.1"
   width="194.03"
   height="100.36"
   id="svg2"
   xml:space="preserve"><metadata
     id="metadata8"><rdf:RDF><cc:Work
         rdf:about=""><dc:format>image/svg+xml</dc:format><dc:type
           rdf:resource="http://purl.org/dc/dcmitype/StillImage" /><dc:title></dc:title></cc:Work></rdf:RDF></metadata><defs
     id="defs6"><clipPath
       id="clipPath18"><path
         d="M 0,0 121,0 121,58 0,58 0,0 z"
         id="path20" /></clipPath><clipPath
       id="clipPath28"><path
         d="m 0,0 120.438,0 0,57.389 L 0,57.389 0,0 z"
         id="path30" /></clipPath><clipPath
       id="clipPath38"><path
         d="M 0,0 121,0 121,58 0,58 0,0 z"
         id="path40" /></clipPath><clipPath
       id="clipPath48"><path
         d="m 0,0 120.438,0 0,57.389 L 0,57.389 0,0 z"
         id="path50" /></clipPath><clipPath
       id="clipPath58"><path
         d="M 0,0 121,0 121,58 0,58 0,0 z"
         id="path60" /></clipPath><clipPath
       id="clipPath68"><path
         d="m 0,0 120.438,0 0,57.389 L 0,57.389 0,0 z"
         id="path70" /></clipPath><clipPath
       id="clipPath78"><path
         d="M 0,0 121,0 121,58 0,58 0,0 z"
         id="path80" /></clipPath><clipPath
       id="clipPath88"><path
         d="m 0,0 120.438,0 0,57.389 L 0,57.389 0,0 z"
         id="path90" /></clipPath></defs><g
     transform="matrix(1.25,0,0,-1.25,-2.2966574,102.63785)"
     id="g10"><g
       id="g12" /><g
       transform="matrix(1.1802095,0,0,1.1802095,9.8373259,9.8221315)"
       id="g3103"><g
         id="g14"><g
           clip-path="url(#clipPath18)"
           id="g16"><path
             d="m 81.7,33.655 12.887,-24.666 6.151,0 7.722,13.142 2.334,2.508 6.64,0 -14.158,-21.557 -2.343,-2.508 -9.372,2.508 -13.181,24.459 -8.006,0 0,-24.666 -2.344,-2.5 -3.513,2.5 0,24.666 -14.158,0 0,-24.666 -2.343,-2.5 -3.612,2.5 0,24.666 -8.592,0 -2.343,3.606 2.343,2.508 c 0,0 1.49,0 3.867,0 2.377,0 4.725,0.552 4.725,4.735 0,4.182 0,7.91 0,7.91 l -2.324,5.368 2.324,2.508 5.955,0 0,-20.54 c 0,0 6.935,0 9.432,0 2.497,0 4.726,2.018 4.726,4.754 0,1.049 -2.344,13.279 -2.344,13.279 l 2.344,2.507 5.857,0 0,-20.521 11.326,0"
             id="path22"
             style="fill:#000000;fill-opacity:1;fill-rule:evenodd;stroke:none" /></g></g><g
         id="g24"><g
           clip-path="url(#clipPath28)"
           id="g26"><path
             d="m 81.7,33.655 12.887,-24.666 6.151,0 7.722,13.142 2.334,2.508 6.64,0 -14.158,-21.557 -2.343,-2.508 -9.372,2.508 -13.181,24.459 -8.006,0 0,-24.666 -2.344,-2.5 -3.513,2.5 0,24.666 -14.158,0 0,-24.666 -2.343,-2.5 -3.612,2.5 0,24.666 -8.592,0 -2.343,3.606 2.343,2.508 c 0,0 1.49,0 3.867,0 2.377,0 4.725,0.552 4.725,4.735 0,4.182 0,7.91 0,7.91 l -2.324,5.368 2.324,2.508 5.955,0 0,-20.54 c 0,0 6.935,0 9.432,0 2.497,0 4.726,2.018 4.726,4.754 0,1.049 -2.344,13.279 -2.344,13.279 l 2.344,2.507 5.857,0 0,-20.521 11.326,0 z"
             id="path32"
             style="fill:none;stroke:#000000;stroke-width:0.56699997;stroke-linecap:square;stroke-linejoin:miter;stroke-miterlimit:10;stroke-opacity:1;stroke-dasharray:none" /></g></g><g
         id="g44"><g
           clip-path="url(#clipPath48)"
           id="g46"><path
             d="m 31.894,18.117 c 0,-8.415 -6.553,-15.238 -14.636,-15.238 -8.083,0 -14.636,6.823 -14.636,15.238 0,8.415 6.553,15.238 14.636,15.238 8.083,0 14.636,-6.823 14.636,-15.238 z M 17.218,28.581 C 11.69,28.581 7.211,23.9 7.211,18.128 c 0,-5.774 4.479,-10.454 10.007,-10.454 5.528,0 10.008,4.68 10.008,10.454 0,5.772 -4.48,10.453 -10.008,10.453 z"
             id="path52"
             style="fill:none;stroke:#000000;stroke-width:0.56699997;stroke-linecap:square;stroke-linejoin:miter;stroke-miterlimit:10;stroke-opacity:1;stroke-dasharray:none" /></g></g><g
         id="g54"><g
           clip-path="url(#clipPath58)"
           id="g56"><path
             d="m 79.356,31.147 12.887,-24.666 6.152,0 10.055,15.65 6.64,0 -14.157,-21.557 -11.716,0 -13.181,24.459 -8.006,0 0,-24.666 -5.857,0 0,24.666 -14.157,0 0,-24.666 -5.955,0 0,24.666 -8.592,0 0,6.114 c 0,0 1.489,0 3.866,0 2.377,0 4.726,0.552 4.726,4.735 0,4.182 0,7.91 0,7.91 l 0,7.876 5.955,0 0,-20.54 c 0,0 6.934,0 9.431,0 2.497,0 4.726,2.018 4.726,4.754 0,2.703 0,15.786 0,15.786 l 5.857,0 0,-20.521 11.326,0"
             id="path62"
             style="fill:#ffffff;fill-opacity:1;fill-rule:evenodd;stroke:none" /></g></g><g
         id="g64"><g
           clip-path="url(#clipPath68)"
           id="g66"><path
             d="m 79.356,31.147 12.887,-24.666 6.152,0 10.055,15.65 6.64,0 -14.157,-21.557 -11.716,0 -13.181,24.459 -8.006,0 0,-24.666 -5.857,0 0,24.666 -14.157,0 0,-24.666 -5.955,0 0,24.666 -8.592,0 0,6.114 c 0,0 1.489,0 3.866,0 2.377,0 4.726,0.552 4.726,4.735 0,4.182 0,7.91 0,7.91 l 0,7.876 5.955,0 0,-20.54 c 0,0 6.934,0 9.431,0 2.497,0 4.726,2.018 4.726,4.754 0,2.703 0,15.786 0,15.786 l 5.857,0 0,-20.521 11.326,0 z"
             id="path72"
             style="fill:none;stroke:#000000;stroke-width:0.56699997;stroke-linecap:square;stroke-linejoin:miter;stroke-miterlimit:10;stroke-opacity:1;stroke-dasharray:none" /></g></g><g
         id="g3092"><g
           id="g34"><g
             clip-path="url(#clipPath38)"
             id="g36"><path
               d="m 31.894,18.117 c 0,-8.415 -6.553,-15.238 -14.636,-15.238 -8.083,0 -14.636,6.823 -14.636,15.238 0,8.415 6.553,15.238 14.636,15.238 8.083,0 14.636,-6.823 14.636,-15.238 z M 17.218,28.581 C 11.69,28.581 7.211,23.9 7.211,18.128 c 0,-5.774 4.479,-10.454 10.007,-10.454 5.528,0 10.008,4.68 10.008,10.454 0,5.772 -4.48,10.453 -10.008,10.453"
               id="path42"
               style="fill:#000000;fill-opacity:1;fill-rule:evenodd;stroke:none" /></g></g><g
           id="g74"><g
             clip-path="url(#clipPath78)"
             id="g76"><path
               d="M 29.55,15.609 C 29.55,7.194 22.997,0.371 14.914,0.371 6.831,0.371 0.278,7.194 0.278,15.609 c 0,8.415 6.553,15.239 14.636,15.239 8.083,0 14.636,-6.824 14.636,-15.239 z M 14.874,26.073 c -5.527,0 -10.007,-4.68 -10.007,-10.453 0,-5.773 4.48,-10.454 10.007,-10.454 5.528,0 10.008,4.681 10.008,10.454 0,5.773 -4.48,10.453 -10.008,10.453"
               id="path82"
               style="fill:#ffffff;fill-opacity:1;fill-rule:evenodd;stroke:none" /></g></g><g
           id="g84"><g
             clip-path="url(#clipPath88)"
             id="g86"><path
               d="M 29.55,15.609 C 29.55,7.194 22.997,0.371 14.914,0.371 6.831,0.371 0.278,7.194 0.278,15.609 c 0,8.415 6.553,15.239 14.636,15.239 8.083,0 14.636,-6.824 14.636,-15.239 z M 14.874,26.073 c -5.527,0 -10.007,-4.68 -10.007,-10.453 0,-5.773 4.48,-10.454 10.007,-10.454 5.528,0 10.008,4.681 10.008,10.454 0,5.773 -4.48,10.453 -10.008,10.453 z"
               id="path92"
               style="fill:none;stroke:#000000;stroke-width:0.56699997;stroke-linecap:square;stroke-linejoin:miter;stroke-miterlimit:10;stroke-opacity:1;stroke-dasharray:none" /></g></g></g></g></g></svg>